<svg id="Capa_1" data-name="Capa 1" xmlns="http://www.w3.org/2000/svg" viewBox="0 0 115.87 231.4"><defs><style>.cls-1{fill:#a8173c;}</style></defs><rect class="cls-1" y="211.71" width="19.68" height="19.68" rx="4.67"/><path class="cls-1" d="M182.34,227.75a10.22,10.22,0,0,1,.43,2.95,10,10,0,0,1-18.29,5.59l0,0-1.24-2.6L110.75,123.4l-1.35-2.83a9.87,9.87,0,0,1-1.81-5.74,10,10,0,0,1,10-10h.12c.91.18,1.83.32,2.76.43a37.08,37.08,0,0,0,4.49.26A38.25,38.25,0,1,0,86.75,67.23V120.1a4.67,4.67,0,0,1-4.66,4.67H71.73a4.67,4.67,0,0,1-4.66-4.67V67.23a57.93,57.93,0,1,1,66.17,57.35L181.1,225.17h0l1.23,2.55A0,0,0,0,0,182.34,227.75Z" transform="translate(-67.07 -9.3)"/></svg>